<svg xmlns="http://www.w3.org/2000/svg">
    <symbol id="car-coupe" fill="currentcolor" stroke="currentcolor" stroke-width="3" viewBox="0 0 99.382 99.382">
        <path d="M17.001,49.693c-4.12,0-7.46,3.338-7.46,7.459c0,0.319,0.026,0.631,0.066,0.938c0.462,3.677,3.593,6.521,7.394,6.521 c3.906,0,7.105-3.002,7.429-6.823c0.019-0.211,0.032-0.422,0.032-0.638C24.463,53.031,21.123,49.693,17.001,49.693z M13.264,54.342l1.522,1.521c-0.119,0.203-0.211,0.423-0.271,0.656H12.37C12.483,55.706,12.794,54.967,13.264,54.342z M12.364,57.812h2.16c0.062,0.229,0.15,0.447,0.27,0.646l-1.524,1.524C12.798,59.361,12.479,58.62,12.364,57.812z M16.356,61.787 c-0.809-0.111-1.543-0.429-2.164-0.896l1.517-1.518c0.199,0.116,0.418,0.201,0.647,0.262V61.787z M16.356,54.672 c-0.235,0.062-0.455,0.153-0.66,0.274l-1.521-1.521c0.625-0.475,1.366-0.788,2.181-0.901V54.672z M17.647,52.524 c0.813,0.113,1.555,0.428,2.18,0.902l-1.52,1.52c-0.205-0.121-0.426-0.214-0.66-0.274V52.524z M17.647,61.786v-2.151 c0.229-0.061,0.447-0.146,0.646-0.264l1.519,1.52C19.191,61.357,18.456,61.675,17.647,61.786z M20.738,59.988l-1.53-1.531 c0.118-0.199,0.217-0.414,0.278-0.646h2.144C21.516,58.62,21.21,59.367,20.738,59.988z M19.487,56.52 c-0.061-0.233-0.152-0.453-0.271-0.656l1.522-1.521c0.471,0.625,0.782,1.364,0.894,2.179L19.487,56.52L19.487,56.52z"></path> 
        <path d="M78.611,49.758c-4.103,0-7.428,3.324-7.428,7.428c0,0.317,0.025,0.627,0.064,0.934c0.46,3.66,3.578,6.494,7.363,6.494 c3.889,0,7.074-2.989,7.396-6.794c0.019-0.21,0.032-0.42,0.032-0.634C86.04,53.082,82.715,49.758,78.611,49.758z M74.891,54.387 l1.516,1.516c-0.118,0.202-0.21,0.421-0.27,0.653h-2.136C74.112,55.744,74.422,55.009,74.891,54.387z M73.994,57.842h2.15 c0.062,0.229,0.15,0.444,0.269,0.644l-1.519,1.52C74.427,59.386,74.108,58.646,73.994,57.842z M77.969,61.801 c-0.805-0.112-1.535-0.429-2.154-0.896l1.51-1.51c0.198,0.115,0.417,0.201,0.645,0.26V61.801z M77.969,54.715 c-0.233,0.061-0.453,0.152-0.656,0.272l-1.514-1.514c0.622-0.471,1.36-0.784,2.17-0.897V54.715z M79.255,52.576 c0.812,0.113,1.549,0.428,2.17,0.898l-1.513,1.513c-0.204-0.12-0.423-0.213-0.657-0.272V52.576z M79.255,61.8v-2.145 c0.229-0.059,0.446-0.146,0.645-0.262l1.511,1.512C80.792,61.371,80.061,61.687,79.255,61.8z M82.332,60.009l-1.523-1.524 c0.117-0.199,0.216-0.412,0.276-0.643h2.134C83.106,58.646,82.802,59.389,82.332,60.009z M81.087,56.555 c-0.06-0.232-0.15-0.451-0.27-0.653l1.516-1.516c0.469,0.622,0.778,1.357,0.889,2.169H81.087z"></path> 
        <path d="M99.352,52.001c-0.026-0.983-0.331-1.941-0.882-2.759l-0.402-0.6l-1.757-4.635c-0.331-0.875-1.139-1.484-2.07-1.562 c-1.728-0.146-4.663-0.368-7.465-0.471c-9.794-5.201-27.904-10.43-43.262-4.731c-3.151,1.169-12.154,5.744-12.154,5.744 s-14.62-0.37-25.047,3.349c-4.108,1.465-6.699,5.543-6.266,9.884c0.087,0.869,0.215,1.642,0.341,2.266 c0.199,0.987,1.014,1.731,2.015,1.842l6.487,0.711c-0.408-0.852-0.695-1.773-0.818-2.755c-0.052-0.401-0.078-0.772-0.078-1.132 c0-4.967,4.041-9.008,9.008-9.008c4.968,0,9.01,4.042,9.01,9.008c0,0.26-0.017,0.514-0.038,0.768 c-0.095,1.115-0.399,2.172-0.868,3.135h45.045l0.365-0.021c-0.4-0.842-0.683-1.753-0.804-2.72 c-0.052-0.403-0.077-0.773-0.077-1.127c0-4.95,4.026-8.978,8.977-8.978s8.978,4.026,8.978,8.978c0,0.259-0.017,0.511-0.038,0.764 c-0.062,0.734-0.223,1.438-0.453,2.11L88.112,60l6.979-0.923c1.214-0.161,2.285-0.876,2.898-1.936l0.695-1.199 c0.479-0.83,0.721-1.777,0.695-2.735L99.352,52.001z M74.63,43.068H40.469c0,0,0.203-0.809-0.69-1.786 c0,0,8.733-5.633,22.22-4.226c3.711,0.388,8.246,0.651,14.42,3.86L74.63,43.068z"></path>
    </symbol>
    <symbol id="car-sedan" fill="currentcolor" stroke="currentcolor" stroke-width="3" viewBox="0 0 98.967 98.967">
        <path d="M17.275,52.156c-4.124,0-7.468,3.343-7.468,7.468c0,0.318,0.026,0.631,0.066,0.938c0.463,3.681,3.596,6.528,7.401,6.528 c3.908,0,7.112-3.004,7.437-6.83c0.017-0.209,0.031-0.422,0.031-0.637C24.743,55.499,21.4,52.156,17.275,52.156z M13.537,56.81 l1.522,1.523c-0.118,0.203-0.211,0.422-0.271,0.656h-2.146C12.752,58.177,13.063,57.435,13.537,56.81z M12.632,60.282h2.163 c0.061,0.23,0.151,0.448,0.271,0.648l-1.526,1.525C13.067,61.835,12.749,61.093,12.632,60.282z M16.629,64.263 c-0.809-0.113-1.544-0.43-2.166-0.899l1.518-1.519c0.2,0.117,0.419,0.203,0.648,0.263V64.263z M16.629,57.14 c-0.235,0.062-0.455,0.154-0.66,0.275l-1.521-1.521c0.625-0.475,1.367-0.789,2.181-0.902V57.14z M17.922,54.99 c0.814,0.113,1.557,0.429,2.181,0.903l-1.52,1.521c-0.204-0.121-0.426-0.213-0.66-0.275L17.922,54.99L17.922,54.99z M17.922,64.261v-2.152c0.23-0.061,0.447-0.146,0.647-0.264l1.519,1.519C19.466,63.833,18.73,64.148,17.922,64.261z M21.014,62.462l-1.531-1.533c0.12-0.201,0.217-0.416,0.278-0.646h2.146C21.793,61.091,21.488,61.839,21.014,62.462z M19.764,58.989c-0.061-0.234-0.153-0.453-0.271-0.656l1.524-1.523c0.471,0.625,0.782,1.367,0.894,2.18H19.764z"></path>
        <path d="M79.284,52.156c-4.124,0-7.468,3.343-7.468,7.468c0,0.318,0.026,0.631,0.066,0.938c0.463,3.681,3.596,6.528,7.4,6.528 c3.908,0,7.112-3.004,7.438-6.83c0.017-0.209,0.031-0.422,0.031-0.637C86.753,55.499,83.409,52.156,79.284,52.156z M75.546,56.81 l1.521,1.523c-0.118,0.203-0.211,0.422-0.271,0.656H74.65C74.761,58.177,75.072,57.435,75.546,56.81z M74.642,60.282h2.163 c0.061,0.23,0.151,0.448,0.271,0.648l-1.525,1.525C75.076,61.835,74.757,61.093,74.642,60.282z M78.638,64.263 c-0.809-0.113-1.544-0.43-2.166-0.899l1.518-1.519c0.2,0.117,0.419,0.203,0.648,0.263V64.263z M78.638,57.14 c-0.235,0.062-0.455,0.154-0.66,0.275l-1.521-1.521c0.625-0.475,1.366-0.789,2.181-0.902V57.14z M79.932,54.99 c0.814,0.113,1.557,0.429,2.181,0.903l-1.521,1.521c-0.204-0.121-0.426-0.215-0.66-0.275V54.99z M79.932,64.261v-2.152 c0.23-0.061,0.447-0.146,0.647-0.264l1.519,1.519C81.476,63.833,80.739,64.148,79.932,64.261z M83.023,62.462l-1.531-1.531 c0.12-0.202,0.218-0.416,0.278-0.647h2.146C83.802,61.091,83.498,61.839,83.023,62.462z M81.773,58.989 c-0.061-0.234-0.152-0.453-0.271-0.656l1.523-1.523c0.472,0.625,0.782,1.367,0.895,2.18H81.773z"></path>
        <path d="M97.216,48.29v-5.526c0-0.889-0.646-1.642-1.524-1.779c-2.107-0.33-5.842-0.953-7.52-1.47 c-2.406-0.742-11.702-4.678-14.921-5.417c-3.22-0.739-17.738-4.685-31.643,0.135c-2.353,0.815-12.938,5.875-19.162,8.506 c-1.833,0.04-19.976,3.822-20.942,6.414c-0.966,2.593-1.269,3.851-1.447,4.509c-0.178,0.658,0,3.807,1.348,6 c1.374,0.777,4.019,1.299,7.077,1.649c-0.035-0.187-0.073-0.371-0.097-0.56c-0.053-0.404-0.078-0.773-0.078-1.125 c0-4.945,4.022-8.969,8.968-8.969s8.968,4.023,8.968,8.969c0,0.254-0.017,0.506-0.036,0.754c-0.047,0.555-0.147,1.094-0.292,1.613 c0.007,0,0.024,0,0.024,0l44.516-0.896c-0.02-0.115-0.046-0.229-0.061-0.346c-0.053-0.402-0.078-0.772-0.078-1.125 c0-4.945,4.022-8.968,8.968-8.968c4.946,0,8.969,4.022,8.969,8.968c0,0.019-0.002,0.035-0.003,0.053l0.19-0.016l7.611-1.433 c0,0,2.915-1.552,2.915-5.822C98.967,49.56,97.216,48.29,97.216,48.29z M53.057,43.051L36.432,43.56 c0.306-2.491-1.169-3.05-1.169-3.05c6.609-5.999,19.929-6.202,19.929-6.202L53.057,43.051z M71.715,42.29l-15.15,0.509l1.373-8.49 c7.83-0.102,12.303,1.626,12.303,1.626l2.237,3.61L71.715,42.29z M80.256,42.238h-4.221l-4.22-5.795 c3.166,1.26,5.7,2.502,7.209,3.287C79.94,40.206,80.44,41.223,80.256,42.238z"></path>
    </symbol>
    <symbol id="car-pickup" fill="currentcolor" stroke="currentcolor" stroke-width="3" viewBox="0 0 99.288 99.288">
        <path d="M17.794,50.41c-4.363,0-7.902,3.535-7.902,7.899c0,0.34,0.027,0.67,0.07,0.994c0.49,3.896,3.806,6.91,7.832,6.91 c4.139,0,7.527-3.179,7.871-7.229c0.018-0.225,0.034-0.446,0.034-0.676C25.699,53.945,22.161,50.41,17.794,50.41z M13.836,55.333 l1.613,1.612c-0.126,0.216-0.225,0.447-0.287,0.695h-2.271C13.008,56.779,13.337,55.995,13.836,55.333z M12.882,59.008h2.288 c0.065,0.244,0.161,0.476,0.287,0.688l-1.616,1.613C13.343,60.652,13.003,59.866,12.882,59.008z M17.11,63.221 c-0.854-0.117-1.635-0.453-2.292-0.949l1.607-1.607c0.21,0.123,0.442,0.214,0.685,0.276V63.221z M17.11,55.682 c-0.248,0.064-0.48,0.164-0.698,0.291l-1.609-1.609c0.66-0.503,1.447-0.835,2.308-0.955L17.11,55.682L17.11,55.682z M18.479,53.409c0.863,0.12,1.648,0.452,2.31,0.956l-1.609,1.608c-0.217-0.127-0.45-0.227-0.7-0.291L18.479,53.409L18.479,53.409z M18.479,63.221v-2.28c0.244-0.063,0.475-0.154,0.687-0.279l1.606,1.61C20.115,62.766,19.336,63.102,18.479,63.221z M21.753,61.313l-1.62-1.619c0.125-0.213,0.229-0.439,0.294-0.686h2.271C22.578,59.866,22.254,60.657,21.753,61.313z M20.428,57.641c-0.062-0.248-0.16-0.479-0.285-0.695l1.611-1.612c0.5,0.661,0.829,1.445,0.947,2.308H20.428L20.428,57.641z"></path>
        <path d="M74.758,50.41c-4.363,0-7.901,3.535-7.901,7.899c0,0.34,0.026,0.67,0.067,0.994c0.49,3.896,3.808,6.91,7.834,6.91 c4.139,0,7.526-3.179,7.87-7.229c0.02-0.225,0.034-0.446,0.034-0.676C82.662,53.945,79.124,50.41,74.758,50.41z M70.799,55.333 l1.613,1.612c-0.126,0.216-0.224,0.447-0.287,0.695h-2.271C69.971,56.779,70.301,55.995,70.799,55.333z M69.846,59.008h2.288 c0.064,0.244,0.16,0.476,0.286,0.688l-1.616,1.613C70.308,60.652,69.967,59.866,69.846,59.008z M74.074,63.221 c-0.855-0.117-1.635-0.453-2.293-0.949l1.606-1.607c0.211,0.123,0.443,0.214,0.687,0.276V63.221z M74.074,55.682 c-0.25,0.064-0.482,0.164-0.699,0.291l-1.608-1.609c0.66-0.503,1.446-0.835,2.309-0.955L74.074,55.682L74.074,55.682z M75.441,53.409c0.862,0.12,1.647,0.452,2.31,0.956l-1.608,1.608c-0.218-0.127-0.45-0.227-0.7-0.291L75.441,53.409L75.441,53.409z M75.441,63.221v-2.28c0.244-0.063,0.475-0.154,0.687-0.279l1.607,1.61C77.078,62.766,76.299,63.102,75.441,63.221z M78.716,61.313l-1.62-1.619c0.125-0.213,0.229-0.439,0.295-0.686h2.271C79.54,59.866,79.217,60.657,78.716,61.313z M77.392,57.641c-0.062-0.248-0.16-0.479-0.285-0.695l1.611-1.612c0.499,0.661,0.828,1.445,0.945,2.308H77.392L77.392,57.641z"></path>
        <path d="M97.999,52.649H96.44l-0.4-9.369c-0.024-0.578-0.504-1.032-1.082-1.027L73.422,42.45v-7.78c0-0.724-0.587-1.31-1.311-1.31 h-1.027c-0.723,0-1.31,0.586-1.31,1.31v7.814l-2.86,0.026l-0.574-6.886c-0.12-1.44-1.324-2.549-2.77-2.549H37.414 c-0.913,0-1.79,0.353-2.448,0.984l-8.782,8.428L9.373,44.261c-2.33,0.245-4.463,1.421-5.915,3.261l-1.731,2.194 c-1.316,0.813-1.975,2.373-1.64,3.885l0.521,2.356c0.225,1.021,1.023,1.815,2.044,2.036l5.737,1.248 c-0.033-0.322-0.064-0.639-0.064-0.932c0-5.221,4.248-9.468,9.47-9.468c5.224,0,9.473,4.248,9.473,9.468 c0,0.272-0.018,0.539-0.039,0.806c-0.006,0.069-0.02,0.136-0.027,0.204h38.157c-0.04-0.354-0.07-0.692-0.07-1.01 c0-5.221,4.248-9.468,9.471-9.468c5.225,0,9.473,4.248,9.473,9.468c0,0.272-0.019,0.539-0.039,0.806 c-0.006,0.069-0.021,0.136-0.027,0.204h4.808l4.356-2.401h4.672c0.711,0,1.287-0.575,1.287-1.286v-1.695 C99.286,53.223,98.71,52.649,97.999,52.649z M33.071,43.002c0,0,0.559-1.347,0-2.89l3.467-4.299 c0.198-0.245,0.496-0.388,0.81-0.388h10.375v7.576L33.071,43.002L33.071,43.002z M51.563,43.002v-7.576h9.415 c0.558,0,1.017,0.44,1.04,0.997l0.273,6.579H51.563z"></path>
    </symbol>
    <symbol id="car-mini" fill="currentcolor" stroke="currentcolor" stroke-width="3" viewBox="0 0 98.54 98.54">
        <path d="M78.823,62.794c0,0.359,0.029,0.71,0.074,1.059c0.521,4.149,4.056,7.361,8.347,7.361c4.407,0,8.019-3.389,8.384-7.7 c0.02-0.238,0.037-0.478,0.037-0.72c0-4.65-3.771-8.421-8.421-8.421C82.593,54.374,78.823,58.144,78.823,62.794z M92.47,62.08 h-2.42c-0.068-0.264-0.172-0.511-0.306-0.741l1.718-1.718C91.994,60.326,92.345,61.163,92.47,62.08z M91.462,65.995l-1.729-1.728 c0.136-0.228,0.245-0.47,0.313-0.73h2.42C92.338,64.45,91.994,65.292,91.462,65.995z M87.974,65.596 c0.259-0.067,0.504-0.166,0.729-0.299l1.712,1.714c-0.701,0.528-1.53,0.886-2.442,1.013L87.974,65.596L87.974,65.596z M87.974,57.571c0.918,0.127,1.755,0.483,2.459,1.019l-1.716,1.716c-0.23-0.138-0.479-0.242-0.744-0.312L87.974,57.571 L87.974,57.571z M83.025,59.621l1.719,1.718c-0.135,0.229-0.238,0.478-0.306,0.741h-2.42 C82.144,61.163,82.495,60.326,83.025,59.621z M86.515,59.994c-0.265,0.069-0.513,0.174-0.744,0.312l-1.716-1.717 c0.704-0.534,1.542-0.89,2.459-1.018L86.515,59.994L86.515,59.994z M84.071,67.012l1.711-1.712 c0.226,0.133,0.474,0.229,0.731,0.296v2.429C85.604,67.898,84.772,67.541,84.071,67.012z M82.01,63.537h2.438 c0.069,0.26,0.172,0.505,0.306,0.731l-1.722,1.721C82.5,65.288,82.138,64.451,82.01,63.537z"></path>
        <path d="M9.198,62.794c0,0.359,0.03,0.71,0.074,1.059c0.521,4.149,4.056,7.361,8.347,7.361c4.408,0,8.02-3.389,8.385-7.7 c0.021-0.238,0.037-0.478,0.037-0.72c0-4.65-3.77-8.421-8.421-8.421S9.198,58.144,9.198,62.794z M22.846,62.08h-2.421 c-0.067-0.264-0.171-0.511-0.305-0.741l1.718-1.718C22.369,60.326,22.72,61.163,22.846,62.08z M21.837,65.995l-1.728-1.728 c0.135-0.228,0.245-0.47,0.313-0.73h2.42C22.714,64.45,22.369,65.292,21.837,65.995z M18.348,65.596 c0.259-0.067,0.505-0.166,0.73-0.299l1.712,1.714c-0.701,0.528-1.531,0.886-2.443,1.013L18.348,65.596L18.348,65.596z M18.348,57.571c0.919,0.127,1.755,0.483,2.459,1.019l-1.715,1.716c-0.23-0.138-0.479-0.242-0.745-0.312L18.348,57.571 L18.348,57.571z M13.4,59.621l1.72,1.718c-0.135,0.229-0.238,0.478-0.306,0.741h-2.421C12.519,61.163,12.87,60.326,13.4,59.621z M16.89,59.994c-0.265,0.069-0.514,0.174-0.744,0.312l-1.716-1.717c0.705-0.534,1.542-0.89,2.46-1.018V59.994z M14.447,67.012 l1.711-1.712c0.226,0.133,0.473,0.229,0.731,0.296v2.429C15.979,67.898,15.148,67.541,14.447,67.012z M12.384,63.537h2.438 c0.069,0.26,0.172,0.505,0.305,0.731l-1.722,1.721C12.875,65.288,12.513,64.451,12.384,63.537z"></path>
        <path d="M0.608,64.732l6.75-0.105c-0.029-0.172-0.066-0.342-0.089-0.517c-0.061-0.477-0.09-0.905-0.09-1.314 c0-5.757,4.683-10.439,10.439-10.439c5.758,0,10.441,4.684,10.441,10.439c0,0.3-0.019,0.594-0.043,0.891 c-0.018,0.209-0.053,0.413-0.083,0.619l48.903-0.768c-0.021-0.256-0.033-0.504-0.033-0.741c0-5.757,4.683-10.439,10.44-10.439 c5.244,0,9.587,3.891,10.319,8.936c0.583-1.279,1.146-3.031,0.927-4.744c-0.418-3.258-3.258-6.421-3.425-8.012 s0.534-2.897,0.116-5.152c-0.418-2.255-4.334-9.698-8.301-12.224c-2.882-1.835-4.958-3.084-13.711-3.586 c-12.331-0.707-20.794,0.099-28.225,2.358c-4.418,1.344-19.541,9.212-24.126,11.751c-5.428,3.006-7.621,3.471-11.371,4.829 c-4.333,1.569-7.086,5.012-8.172,7.614S-0.603,59.971,0.608,64.732z M69.973,41.622l-1.296-10.998 c7.179,0.126,14.629,0.691,15.283,3.207c0.388,1.491-1.575,5.05-3.926,6.097C78.218,40.737,75.401,41.043,69.973,41.622z M34.938,39.997l0.82-2.399c9.711-5.215,14.664-7.011,26.704-7.011c0.551,0,1.121,0,1.702,0l-1.383,11.728 c-12.625,1.121-27.527,2.039-27.527,2.039C36.453,41.891,34.938,39.997,34.938,39.997z"></path>
    </symbol>
    <symbol id="car-jeep" fill="currentcolor" stroke="currentcolor" stroke-width="3" viewBox="0 0 99.088 99.087">
        <path d="M15.078,51.768c-5.832,0-10.562,4.728-10.562,10.562c0,0.451,0.037,0.891,0.094,1.328 c0.655,5.205,5.086,9.233,10.468,9.233c5.526,0,10.058-4.25,10.516-9.66c0.024-0.298,0.045-0.597,0.045-0.901 C25.639,56.496,20.911,51.768,15.078,51.768z M11.107,59.339l1.617,1.618c-0.126,0.216-0.225,0.449-0.287,0.697h-2.28 C10.274,60.792,10.605,60.002,11.107,59.339z M10.147,63.029h2.298c0.064,0.245,0.16,0.475,0.287,0.688l-1.621,1.621 C10.609,64.675,10.27,63.889,10.147,63.029z M14.392,67.255c-0.859-0.12-1.641-0.457-2.301-0.956l1.611-1.611 c0.213,0.125,0.445,0.215,0.689,0.277L14.392,67.255L14.392,67.255z M14.392,59.691c-0.251,0.063-0.483,0.164-0.701,0.292 l-1.615-1.617c0.664-0.504,1.452-0.838,2.316-0.958V59.691z M15.766,57.409c0.864,0.12,1.653,0.454,2.316,0.959l-1.616,1.616 c-0.216-0.128-0.451-0.229-0.7-0.292V57.409z M15.766,67.253v-2.288c0.244-0.062,0.475-0.155,0.688-0.279l1.612,1.612 C17.406,66.797,16.623,67.133,15.766,67.253z M19.049,65.342l-1.626-1.627c0.128-0.214,0.23-0.44,0.295-0.687h2.28 C19.875,63.887,19.552,64.683,19.049,65.342z M17.721,61.655c-0.063-0.249-0.162-0.481-0.287-0.697l1.618-1.618 c0.5,0.664,0.831,1.452,0.949,2.315H17.721z"></path>
        <path d="M80.286,51.768c-5.831,0-10.562,4.728-10.562,10.562c0,0.451,0.037,0.891,0.095,1.328 c0.655,5.205,5.085,9.233,10.467,9.233c5.527,0,10.06-4.25,10.517-9.66c0.023-0.298,0.045-0.597,0.045-0.901 C90.848,56.496,86.12,51.768,80.286,51.768z M76.315,59.339l1.618,1.618c-0.127,0.216-0.226,0.449-0.289,0.697h-2.278 C75.483,60.792,75.813,60.002,76.315,59.339z M75.356,63.029h2.298c0.062,0.245,0.16,0.475,0.287,0.688l-1.622,1.621 C75.817,64.675,75.479,63.889,75.356,63.029z M79.6,67.255c-0.858-0.12-1.641-0.457-2.301-0.956l1.612-1.611 c0.212,0.125,0.444,0.215,0.688,0.277V67.255L79.6,67.255z M79.6,59.691c-0.25,0.063-0.482,0.164-0.7,0.292l-1.615-1.617 c0.664-0.504,1.452-0.838,2.315-0.958V59.691z M80.975,57.409c0.865,0.12,1.652,0.454,2.315,0.959l-1.614,1.616 c-0.218-0.128-0.453-0.229-0.701-0.292V57.409z M80.975,67.253v-2.288c0.244-0.062,0.476-0.155,0.688-0.279l1.613,1.612 C82.615,66.797,81.832,67.133,80.975,67.253z M84.258,65.342l-1.627-1.627c0.129-0.214,0.23-0.44,0.297-0.687h2.278 C85.084,63.887,84.762,64.683,84.258,65.342z M82.93,61.655c-0.063-0.249-0.162-0.481-0.287-0.697l1.619-1.618 c0.5,0.664,0.83,1.452,0.947,2.315H82.93z"></path>
        <path d="M75.914,26.198l-28.335,0.357c-0.85,0.01-1.53,0.708-1.519,1.558c0.009,0.837,0.688,1.509,1.52,1.519 c0.014,0,0.025,0,0.038,0l28.335-0.357c0.85-0.01,1.53-0.708,1.52-1.558C77.461,26.867,76.74,26.166,75.914,26.198z"></path>
        <path d="M64.707,62.041H31.253c-0.85,0-1.538,0.689-1.538,1.539c0,0.851,0.688,1.539,1.538,1.539h33.454 c0.85,0,1.538-0.688,1.538-1.539C66.245,62.73,65.557,62.041,64.707,62.041z"></path>
        <path d="M98.658,53.259c-0.357-0.436-0.895-0.688-1.458-0.688h-1.749l-1.777-19.458c-0.098-1.074-1.006-1.891-2.086-1.875 l-50.028,0.75c-0.778,0.012-1.51,0.376-1.988,0.991l-6.631,8.523l-21.714,1.345c-1.181,0.074-2.262,0.689-2.926,1.668 l-1.223,1.799c0,0-2.094,0.737-2.655,1.201c-0.487,0.403-1.456,2.069-1.456,2.069c-0.184,0.26-0.206,0.603-0.059,0.884 c0.146,0.283,0.438,0.46,0.757,0.46v1.896H1.858C0.831,52.825,0,53.657,0,54.682v3.424c0,1.272,1.031,2.305,2.305,2.305H3.54 l3.183-8.782c0.29-0.8,1.05-1.333,1.9-1.333h11.11c0.63,0,1.225,0.294,1.607,0.796l7.484,9.824h39.064l5.482-9.25 c0.363-0.614,1.023-0.99,1.738-0.99h10.201c0.72,0,1.385,0.383,1.748,1.005l5.375,9.236h1.928c2.027,0,3.773-1.435,4.165-3.425 l0.524-2.666C99.162,54.271,99.018,53.697,98.658,53.259z M51.068,43.467H39.54v-3.541h-2.335l3.494-4.613 c0.15-0.199,0.384-0.317,0.633-0.321l11.694-0.174v5.108L51.068,43.467z M70.131,43.467H57.699v-8.719l14.993-0.223v6.38 L70.131,43.467z M76.538,43.467v-9l12.907-0.192c0.22-0.003,0.402,0.166,0.419,0.385l0.606,8.807H76.538z"></path>
    </symbol>
    <symbol id="car-muscle" fill="currentcolor" stroke="currentcolor" stroke-width="3" viewBox="0 0 99.369 99.369">
        <path d="M18.193,48.351c-4.106,0.166-7.299,3.622-7.133,7.727c0.014,0.316,0.049,0.627,0.102,0.934 c0.608,3.645,3.84,6.354,7.624,6.199c3.892-0.155,6.958-3.271,7.13-7.09c0.008-0.21,0.015-0.423,0.006-0.635 C25.757,51.38,22.296,48.185,18.193,48.351z M17.664,51.199l0.083,2.137c-0.231,0.071-0.444,0.173-0.646,0.302l-1.575-1.452 C16.133,51.685,16.857,51.341,17.664,51.199z M14.657,53.13l1.576,1.455c-0.107,0.207-0.192,0.431-0.243,0.663l-2.135,0.087 C13.932,54.521,14.211,53.77,14.657,53.13z M13.896,56.62l2.151-0.085c0.072,0.227,0.17,0.439,0.296,0.637l-1.459,1.578 C14.393,58.149,14.043,57.421,13.896,56.62z M15.841,59.617l1.452-1.572c0.199,0.105,0.424,0.186,0.653,0.233l0.085,2.145 C17.225,60.342,16.478,60.054,15.841,59.617z M23.078,54.966l-2.136,0.086c-0.068-0.23-0.17-0.443-0.297-0.644l1.456-1.578 C22.595,53.435,22.935,54.161,23.078,54.966z M18.95,51.147c0.817,0.08,1.565,0.363,2.205,0.812l-1.452,1.573 c-0.206-0.114-0.431-0.198-0.667-0.249L18.95,51.147z M19.318,60.371l-0.085-2.144c0.228-0.067,0.438-0.165,0.634-0.29l1.57,1.455 C20.838,59.883,20.119,60.228,19.318,60.371z M22.326,58.456l-1.584-1.463c0.107-0.204,0.197-0.421,0.25-0.656l2.133-0.085 C23.043,57.063,22.772,57.82,22.326,58.456z"></path>
        <path d="M75.478,46.602c-4.105,0.166-7.297,3.622-7.132,7.728c0.014,0.316,0.05,0.627,0.102,0.933 c0.607,3.646,3.839,6.354,7.625,6.198c3.891-0.154,6.958-3.271,7.128-7.089c0.009-0.211,0.017-0.423,0.006-0.636 C83.041,49.631,79.579,46.437,75.478,46.602z M74.948,49.45l0.083,2.138c-0.229,0.07-0.444,0.172-0.644,0.301l-1.576-1.451 C73.415,49.936,74.143,49.591,74.948,49.45z M71.941,51.381l1.576,1.454c-0.108,0.209-0.192,0.432-0.243,0.665l-2.137,0.086 C71.216,52.773,71.495,52.021,71.941,51.381z M71.182,54.871l2.15-0.085c0.072,0.227,0.169,0.439,0.294,0.636L72.169,57 C71.678,56.402,71.328,55.673,71.182,54.871z M73.124,57.868l1.452-1.572c0.201,0.107,0.424,0.185,0.653,0.233l0.086,2.145 C74.51,58.593,73.763,58.306,73.124,57.868z M80.362,53.216l-2.137,0.086c-0.068-0.229-0.168-0.441-0.296-0.642l1.456-1.579 C79.878,51.686,80.219,52.411,80.362,53.216z M76.233,49.398c0.818,0.079,1.565,0.363,2.206,0.813l-1.452,1.572 c-0.206-0.114-0.431-0.198-0.668-0.249L76.233,49.398z M76.604,58.622l-0.086-2.145c0.229-0.067,0.438-0.163,0.634-0.288 l1.57,1.454C78.123,58.134,77.402,58.48,76.604,58.622z M79.609,56.707l-1.584-1.462c0.108-0.205,0.197-0.422,0.25-0.657 l2.134-0.085C80.329,55.314,80.058,56.072,79.609,56.707z"></path>
        <path d="M99.28,49.513c-0.129-0.231-0.377-0.374-0.643-0.366l-1.142,0.035c0,0,0.575-2.848,0.772-4.308 c0.02-0.15-0.027-0.302-0.129-0.415c-0.103-0.112-0.248-0.175-0.399-0.17c-3.79,0.117-20.193-3.427-25.316-7.248 c-0.544-0.406-1.2-0.617-1.879-0.68c-3.873-0.36-11.7-0.166-14.925-0.064c-0.946,0.03-1.858,0.283-2.688,0.742 c0,0-7.761,4.671-10.541,5.828c-4.696,1.955-15.758,1.387-18.822,1.205c-3.874-0.23-10.241-0.454-17.135,4.475 c0,0-3.263,0.848-5.798,2.251c-0.369,0.205-0.608,0.583-0.634,1.004c-0.026,0.421,0.164,0.826,0.505,1.073 c0.389,0.282,0.587,0.329,0.587,0.329l0.169,0.653c0.344,1.332,1.294,2.426,2.564,2.95l2.386,0.986 c1.36,0.562,2.813,0.868,4.283,0.903c-0.178-0.484-0.313-0.987-0.398-1.513c-0.059-0.349-0.101-0.703-0.115-1.066 c-0.092-2.271,0.706-4.444,2.249-6.115c1.541-1.67,3.643-2.64,5.915-2.731c4.73-0.144,8.665,3.521,8.852,8.167 c0.009,0.241,0.002,0.481-0.008,0.723c-0.046,1.022-0.284,2.003-0.667,2.904l2.003,0.048l40.982,0.44 c-0.979-1.142-1.665-2.55-1.927-4.117c-0.059-0.348-0.102-0.703-0.114-1.066c-0.093-2.271,0.707-4.444,2.248-6.114 c1.542-1.671,3.643-2.641,5.916-2.731c4.73-0.145,8.664,3.521,8.852,8.166c0.009,0.241,0.001,0.481-0.008,0.722 c-0.038,0.861-0.211,1.689-0.492,2.469l8.059-0.246c0.196-0.006,0.385-0.095,0.514-0.244l1.88-2.165l2.058-0.062 c0.229-0.007,0.442-0.124,0.569-0.315l2.389-3.598C99.397,50.029,99.409,49.744,99.28,49.513z M65.217,42.352l-0.185,0.038 c-0.575,0.118-1.085,0.446-1.432,0.922c-1.768,1.11-10.342,1.155-16.049,0.49l6.575-5.356c0.337-0.274,0.757-0.426,1.189-0.434 l9.604-0.135c0.557-0.007,1.016,0.433,1.031,0.988l0.076,2.46C66.042,41.821,65.701,42.254,65.217,42.352z"></path>
    </symbol>
</svg>