<svg xmlns="http://www.w3.org/2000/svg">
    <symbol id="inspeccion" viewBox="0 -64 512 512">
        <path fill="currentcolor" transform="scale(1,-1) translate(0,-385)" d="M480 266q13 0 22.5 -9t9.5 -22t-9 -23l-90 -89v-162q0 -10 -7.5 -17.5t-17.5 -7.5h-363q-10 0 -17.5 7.5t-7.5 17.5v462q0 10 7.5 17.5t17.5 7.5h363q10 0 17.5 -7.5t7.5 -17.5v-16q8 15 8 33h17q0 -30 18 -48t48 -18v-17q-26 0 -46 -25t-20 -49h-17q0 17 -8 34v-105
    l45 45q9 9 22 9zM429 402q-13 -26 -39 -37q27 -15 40 -46q14 30 39 45q-28 11 -40 38zM396 -39v145l-86 -86l-78 -34l34 79l1 1l2 2h-46v58h58v-46l115 115v144q-18 18 -41 18v17q23 0 41 14v35q0 8 -8 8h-363q-8 0 -8 -8v-462q0 -8 8 -8h363q8 0 8 8zM291 30l-16 15
    l-12 -27zM264 109h-25v-24h25v24zM306 39l145 145l-22 21l-145 -145zM491 224q4 4 4 11q0 4 -2 7.5t-5.5 5.5t-7.5 2q-6 0 -10 -5l-29 -28l21 -22zM107 291q-8 0 -15.5 2.5t-13.5 7t-10.5 10.5t-7 14t-2.5 16q0 20 14.5 34.5t35 14.5t35 -14.5t14.5 -35t-14.5 -35
    t-35.5 -14.5zM107 374q-6 0 -12.5 -3t-10.5 -7t-7 -10.5t-3 -12.5q0 -14 10 -23.5t23.5 -9.5t23 9.5t9.5 23.5q0 9 -4 16.5t-12 12t-17 4.5zM66 258v17h66v-17h-66zM132 209v-58h-58v58h58zM116 167v25h-25v-25h25zM74 68v58h58v-58h-58zM91 109v-24h25v24h-25zM281 209v-58
    h-58v58h58zM264 167v25h-25v-25h25zM215 349v16h115v-16h-115zM215 299v17h148v-17h-148zM215 250v16h148v-16h-148zM149 184v16h41v-16h-41zM149 151v16h41v-16h-41zM297 184v16h42v-16h-42zM297 151v16h42v-16h-42zM149 85v16h41v-16h-41zM74 19v16h149v-16h-149zM74 -14
    v16h149v-16h-149zM149 258v17h16v-17h-16zM363 -31v17h17v-17h-17zM330 -31v17h17v-17h-17zM33 -31v17h17v-17h-17z" />
    </symbol>
    <symbol id="pintura" viewBox="0 -64 512 512" >
        <path fill="currentcolor" transform="scale(1,-1) translate(0,-385)" d="M471 175v-24h-31l51 -114l-12 -2v-39l-25 -7q-1 -7 -5 -14t-14 -17t-30.5 -16t-49.5 -6h-355v17h355q66 0 80 32l-33 -9l-35 35l-8 -2l-67 133h-19v-49q0 -20 -10 -39t-32 -19v17q5 0 9 2t6.5 5.5t4.5 8t3 8.5t1.5 8.5t0.5 6v2.5v49h-74q-11 0 -18 7.5t-7 17.5h-50v66h50
    v9q0 10 7 17t18 7h5l33 22q-38 24 -38 69v91h165v-91q0 -21 -10 -39t-27 -29.5t-37 -13.5v-9h198v-24h41v-67h-41zM471 225v-33h24v33h-24zM157 184v33h-33v-33h33zM256 159v91h-74q-9 0 -9 -8v-9v-66q0 -8 9 -8h74zM256 266v9q-10 1 -19 4l-20 -13h39zM264 291q18 0 33.5 9
    t24 24t8.5 33v74h-132v-74q0 -27 19.5 -46.5t46.5 -19.5zM462 9v22l-75 -16l20 -20zM432 167h22v8v67v8h-181v-91h29l66 -131l99 21l-70 156l15 7zM33 192v17h58v-17h-58zM0 192v17h17v-17h-17zM7 298l11 11l79 -78l-12 -12zM85 181l12 -11l-83 -83l-12 12zM289 217v16h17
    v-16h-17zM322 217v16h17v-16h-17zM17 233v17h16v-17h-16zM17 151v16h16v-16h-16zM314 398v-41q0 -20 -14.5 -34.5t-35 -14.5t-35 14.5t-14.5 34.5v41h99zM297 357v25h-66v-25q0 -14 10 -23.5t23.5 -9.5t23 9.5t9.5 23.5z" />
    </symbol>
    <symbol id="instalacion" viewBox="0 -64 512 512">
        <path fill="currentcolor" transform="scale(1,-1) translate(0,-385)" d="M471 316q17 0 29 -12t12 -29v-298q0 -17 -12 -29t-29 -12h-430q-17 0 -29 12t-12 29v298q0 17 12 29t29 12h168q-27 22 -27 58v33q0 17 12 29t29 12h66q17 0 29 -12t12 -29v-33q0 -36 -27 -58h168zM198 374q0 -24 17 -41t41 -17t41 17t17 41q-11 -9 -25 -9v17
    q10 0 17.5 7t7.5 17.5t-7.5 17.5t-17.5 7h-66q-10 0 -17.5 -7t-7.5 -17.5t7.5 -17.5t17.5 -7h50v-17h-50q-14 0 -25 9zM281 101h82v-66q0 -10 7.5 -17.5t17.5 -7.5t17.5 7.5t7.5 17.5v182q0 10 -7.5 17.5t-17.5 7.5t-17.5 -7.5t-7.5 -17.5v-66h-66v-17q0 -17 -12 -29
    t-29 -12q-11 0 -20.5 5.5t-15 15t-5.5 20.5v17h-66v66q0 10 -7.5 17.5t-17.5 7.5t-17.5 -7.5t-7.5 -17.5v-182q0 -10 7.5 -17.5t17.5 -7.5t17.5 7.5t7.5 17.5v66h82v-66q0 -10 7.5 -17.5t17.5 -7.5t17.5 7.5t7.5 17.5v66zM231 134q0 -10 7.5 -17.5t17.5 -7.5t17.5 7.5
    t7.5 17.5v170q-12 -5 -25 -5t-25 5v-170zM495 -23v298q0 10 -7 17t-17 7h-174v-132h50v50q0 17 12 29t29 12t29 -12t12 -29v-182q0 -17 -12 -29t-29 -12t-29 12t-12 29v50h-50v-50q0 -17 -12 -29t-29 -12q-11 0 -20.5 5.5t-15 15t-5.5 20.5v50h-50v-50q0 -17 -12 -29
    t-29 -12t-29 12t-12 29v182q0 17 12 29t29 12t29 -12t12 -29v-50h50v132h-174q-10 0 -17 -7t-7 -17v-298q0 -10 7 -17t17 -7h430q10 0 17 7t7 17zM58 341v16h99v-16h-99zM124 374v16h33v-16h-33zM388 332v17h83v-17h-83zM363 365v17h58v-17h-58zM462 -31v17h17v-17h-17z
    M429 -31v17h17v-17h-17zM33 -31v17h17v-17h-17zM91 374v16h16v-16h-16z" />
    </symbol>
    <symbol id="balanceo" viewBox="0 -64 512 512" >
            <path fill="currentcolor" transform="scale(1,-1) translate(0,-385)" d="M74 242v16h17v-16h-17zM490 2h22v-16h-256v16h138q-22 15 -22 41v108h-75q0 -11 -7 -18t-17 -7h-25q-7 0 -12.5 3.5t-9 9t-3.5 12.5h-83v-108q0 -26 -22 -41h55v-16h-173v16h22q-22 15 -22 41v273q0 20 14.5 34.5t35.5 14.5h41q13 0 24.5 -6.5t18 -18t6.5 -24.5v-107h83q0 10 7 17t18 7h25q10 0 17 -7t7 -17h75v107q0 20 14.5 34.5t34.5 14.5h41q21 0 35.5 -14.5t14.5 -34.5v-273q0 -26 -22 -41zM17 316v-46l33 33v46q-14 0 -23.5 -9.5t-9.5 -23.5zM17 246v-67l33 33v67zM50 10v88l-33 -33v-22q0 -13 9.5 -23t23.5 -10zM50 121v68l-33 -33v-68zM124 43v22l-33 33v-88q13 0 23 10t10 23zM124 88v68l-33 33v-68zM124 179v67l-33 33v-4h-17v74h-8v-339h8v215h17v-13zM124 270v46q0 13 -10 23t-23 10v-46zM223 167v25h-83v-25h83zM281 151v58q0 8 -8 8h-25q-9 0 -9 -8v-58q0 -9 9 -9h25q8 0 8 9zM372 167v25h-75v-25h75z
    M495 88v68l-33 33v-68zM462 349v-46l33 -33v46q0 13 -10 23t-23 10zM388 316v-46l33 33v46q-9 0 -16.5 -4.5t-12 -12t-4.5 -16.5zM421 10v88l-33 -33v-22q0 -13 9.5 -23t23.5 -10zM421 121v68l-33 -33v-68zM421 212v67l-33 -33v-67zM446 10v215h16v-13l33 -33v67l-33 33v-37
    h-16v107h-8v-339h8zM462 10q13 0 23 10t10 23v22l-33 33v-88zM248 159v16h16v-16h-16zM83 -64v17h429v-17h-429zM190 -14v16h16v-16h-16zM223 -14v16h16v-16h-16zM0 -64v17h66v-17h-66zM8 390v17h207v-17h-207zM124 431v17h91v-17h-91zM396 390v17h108v-17h-108zM330 431v17
    h108v-17h-108zM363 390v17h17v-17h-17zM330 390v17h17v-17h-17z"/>
    </symbol>
</svg>

